<?xml version="1.0" encoding="UTF-8" standalone="no"?>
<!-- Created with Inkscape (http://www.inkscape.org/) -->

<svg
   xmlns:dc="http://purl.org/dc/elements/1.1/"
   xmlns:cc="http://creativecommons.org/ns#"
   xmlns:rdf="http://www.w3.org/1999/02/22-rdf-syntax-ns#"
   xmlns:svg="http://www.w3.org/2000/svg"
   xmlns="http://www.w3.org/2000/svg"
   xmlns:sodipodi="http://sodipodi.sourceforge.net/DTD/sodipodi-0.dtd"
   xmlns:inkscape="http://www.inkscape.org/namespaces/inkscape"
   width="1920"
   height="1080"
   viewBox="0 0 507.99999 285.75001"
   version="1.1"
   id="svg8"
   inkscape:version="0.92.4 (5da689c313, 2019-01-14)"
   sodipodi:docname="drawing.svg">
  <defs
     id="defs2" />
  <sodipodi:namedview
     id="base"
     pagecolor="#ffffff"
     bordercolor="#666666"
     borderopacity="1.0"
     inkscape:pageopacity="0.0"
     inkscape:pageshadow="2"
     inkscape:zoom="0.7"
     inkscape:cx="931.81144"
     inkscape:cy="604.83154"
     inkscape:document-units="mm"
     inkscape:current-layer="layer1"
     showgrid="false"
     units="px"
     inkscape:snap-global="false"
     inkscape:window-width="1920"
     inkscape:window-height="1017"
     inkscape:window-x="-8"
     inkscape:window-y="-8"
     inkscape:window-maximized="1" />
  <metadata
     id="metadata5">
    <rdf:RDF>
      <cc:Work
         rdf:about="">
        <dc:format>image/svg+xml</dc:format>
        <dc:type
           rdf:resource="http://purl.org/dc/dcmitype/StillImage" />
        <dc:title></dc:title>
      </cc:Work>
    </rdf:RDF>
  </metadata>
  <g
     inkscape:label="Layer 1"
     inkscape:groupmode="layer"
     id="layer1"
     transform="translate(0,-11.249983)">
    <path
       style="fill:#ffffff;fill-opacity:1;stroke:#000000;stroke-width:4;stroke-linecap:butt;stroke-linejoin:miter;stroke-miterlimit:4;stroke-dasharray:none;stroke-opacity:1"
       d="m 78.03992,194.22813 c -3.787935,-2.97113 -10.009292,21.39512 -3.471723,29.00546 2.665644,3.10306 21.111377,2.3493 23.252448,-1.33635 2.221515,-3.82412 0.768917,-29.47821 -3.741771,-27.79603 -6.243099,2.32825 -12.646717,2.78768 -16.038954,0.12692 z"
       id="path817"
       inkscape:connector-curvature="0"
       sodipodi:nodetypes="sssss" />
    <circle
       style="opacity:1;fill:#ffffff;fill-opacity:1;stroke:#000000;stroke-width:3.08963585;stroke-miterlimit:4;stroke-dasharray:none;stroke-opacity:1"
       id="path815"
       cx="85.889839"
       cy="179.88258"
       r="15.689544" />
    <path
       style="fill:#040000;fill-opacity:1;stroke:none;stroke-width:0.26458332px;stroke-linecap:butt;stroke-linejoin:miter;stroke-opacity:1"
       d="m 77.29613,223.6726 c 0.372001,0.10145 -1.494522,14.39408 -2.456847,19.84375 -0.123938,0.70186 0.805492,1.41731 1.511906,1.51191 1.006794,0.13483 2.325158,-0.54807 2.645834,-1.51191 1.868001,-5.61453 2.244463,-19.1232 2.456844,-19.0878 z"
       id="path826"
       inkscape:connector-curvature="0"
       sodipodi:nodetypes="cssscc" />
    <path
       sodipodi:nodetypes="cssscc"
       inkscape:connector-curvature="0"
       id="path828"
       d="m 90.829822,223.6175 c 0.385468,0.01 1.990029,14.33398 2.35847,19.85568 0.04745,0.71114 1.120973,1.18364 1.829518,1.10662 1.009833,-0.10978 2.126705,-1.08806 2.207656,-2.10062 0.471559,-5.8983 -2.392432,-19.10525 -2.177747,-19.12165 z"
       style="fill:#040000;fill-opacity:1;stroke:none;stroke-width:0.26458332px;stroke-linecap:butt;stroke-linejoin:miter;stroke-opacity:1" />
    <circle
       style="opacity:1;fill:#0c54ff;fill-opacity:1;stroke:none;stroke-width:4;stroke-miterlimit:4;stroke-dasharray:none;stroke-opacity:1"
       id="path830"
       cx="81.375587"
       cy="175.89102"
       r="3.0238097" />
    <circle
       r="3.0238097"
       cy="175.08923"
       cx="91.932739"
       id="circle832"
       style="opacity:1;fill:#0c54ff;fill-opacity:1;stroke:none;stroke-width:4;stroke-miterlimit:4;stroke-dasharray:none;stroke-opacity:1" />
    <path
       style="fill:#000000;fill-opacity:1;stroke:none;stroke-width:0.30561048px;stroke-linecap:butt;stroke-linejoin:miter;stroke-opacity:1"
       d="m 81.130219,180.85875 c -0.172106,1.17884 0.104095,2.40325 0.436589,3.54725 0.556395,1.91434 1.2578,3.89754 2.564944,5.40277 0.800568,0.92187 1.835501,1.98913 3.056104,2.01921 1.60621,0.0396 3.165194,-1.18443 4.147571,-2.45581 1.249739,-1.61739 1.637208,-3.7991 1.991928,-5.81206 0.227849,-1.29299 0.238689,-1.64889 0.208945,-2.68823 -0.01451,-0.50708 -0.0826,-1.52492 -0.665036,-1.68989 -0.348714,-0.0988 -0.799305,0.41895 -0.869593,0.6527 -0.348307,1.15816 -0.09863,2.03923 -0.342092,3.22388 -0.358942,1.74658 -0.374388,2.96306 -1.542706,4.65009 -0.662267,0.95629 -1.624833,1.31383 -2.628862,1.50277 -0.748716,0.1409 -1.561587,-0.71191 -2.066461,-1.28247 -1.264234,-1.42871 -1.371281,-3.25587 -2.0379,-4.89164 -0.413402,-1.01442 -0.352359,-2.37964 -1.216537,-3.0528 -0.16486,-0.12842 -0.331738,-0.1437 -0.621471,-0.0825 -0.310835,0.0657 -0.369526,0.64235 -0.415423,0.95672 z"
       id="path836"
       inkscape:connector-curvature="0"
       sodipodi:nodetypes="cssssssasssssaassc" />
  </g>
</svg>
